<svg fill="#000000" xmlns="http://www.w3.org/2000/svg"  viewBox="0 0 64 64" width="64px" height="64px"><path d="M 32.705078 1 A 1.0001 1.0001 0 0 0 31.908203 1.4023438 L 26.390625 8.8085938 C 26.183253 9.0360219 24 11.510233 24 15.255859 C 24 19.072185 25.703018 22.114959 27.763672 23.660156 C 29.611612 25.045848 37.366016 30.356385 37.416016 30.390625 C 37.416016 30.390625 39.70678 32.299746 39.945312 33.96875 A 1.0001 1.0001 0 0 0 39.945312 33.970703 C 40.056992 34.748604 40.063416 35.131357 40.037109 35.300781 C 40.010799 35.470205 39.968549 35.542973 39.753906 35.900391 A 1.0001 1.0001 0 0 0 40.056641 37.248047 L 40.935547 37.832031 A 1.0001 1.0001 0 0 0 42.279297 37.613281 L 48.597656 29.46875 L 48.537109 29.539062 C 48.537109 29.539062 51 26.849164 51 22.128906 C 51 17.208816 47.10044 14.314919 45.160156 12.970703 C 43.253216 11.649855 36.238281 6.8261719 36.238281 6.8261719 A 1.0001 1.0001 0 0 0 36.140625 6.7675781 C 36.140625 6.7675781 35.621919 6.4884464 35.103516 6.015625 C 34.585116 5.5428038 34.1875 4.9483582 34.1875 4.4335938 C 34.1875 3.7961063 34.27949 3.500285 34.3125 3.4199219 A 1.0001 1.0001 0 0 0 34.228516 1.9628906 L 33.351562 1.2324219 A 1.0001 1.0001 0 0 0 32.705078 1 z M 32.199219 4.3613281 C 32.198864 4.3938701 32.1875 4.4001678 32.1875 4.4335938 C 32.1875 5.8198292 33.031763 6.833712 33.755859 7.4941406 C 34.414445 8.0948184 35.007455 8.424443 35.121094 8.4863281 C 35.146328 8.503681 42.131833 13.306402 44.021484 14.615234 C 45.883205 15.905019 49 18.274996 49 22.128906 C 49 26.182649 47.078125 28.171875 47.078125 28.171875 A 1.0001 1.0001 0 0 0 47.017578 28.242188 L 41.974609 34.744141 C 41.961129 34.412513 41.992061 34.147191 41.925781 33.685547 C 41.502313 30.722551 38.607422 28.785156 38.607422 28.785156 A 1.0001 1.0001 0 0 0 38.578125 28.761719 C 38.578125 28.761719 30.618995 23.30239 28.962891 22.060547 C 27.513553 20.97375 26 18.461533 26 15.255859 C 26 12.161265 27.921875 10.089844 27.921875 10.089844 A 1.0001 1.0001 0 0 0 27.994141 10.003906 L 32.199219 4.3613281 z M 35.640625 11.488281 A 1.0001 1.0001 0 0 0 34.8125 11.914062 L 33.642578 13.537109 A 1.0001 1.0001 0 1 0 35.263672 14.707031 L 36.433594 13.085938 A 1.0001 1.0001 0 0 0 35.640625 11.488281 z M 39.365234 14.050781 A 1.0001 1.0001 0 0 0 38.539062 14.484375 L 37.380859 16.113281 A 1.0001 1.0001 0 1 0 39.009766 17.273438 L 40.169922 15.642578 A 1.0001 1.0001 0 0 0 39.365234 14.050781 z M 43.089844 16.615234 A 1.0001 1.0001 0 0 0 42.265625 17.052734 L 41.117188 18.691406 A 1.0005189 1.0005189 0 1 0 42.755859 19.839844 L 43.904297 18.201172 A 1.0001 1.0001 0 0 0 43.089844 16.615234 z M 24.259766 24 A 1.0001 1.0001 0 0 0 23.455078 24.375 L 20.404297 28.183594 C 20.267686 28.327182 17.866322 30.8949 18.005859 34.271484 C 18.083899 36.163257 18.561034 37.598541 19.455078 38.751953 C 20.349122 39.905365 21.562575 40.752596 23.089844 41.794922 C 25.569475 43.486332 27.390667 44.677047 28.302734 45.5 C 28.758768 45.911477 28.945159 46.2273 28.964844 46.294922 C 28.984524 46.362542 29.042304 46.252602 28.863281 46.453125 A 1.0001 1.0001 0 0 0 29.005859 47.917969 C 29.592229 48.362035 29.740297 48.46325 29.794922 48.5 C 29.849552 48.53675 29.780082 48.48434 30.142578 48.777344 A 1.0001 1.0001 0 0 0 31.568359 48.603516 C 33.448026 46.124662 34.758084 44.51954 35.650391 43.091797 C 36.542697 41.664054 37 40.338648 37 38.771484 C 37 36.599985 36.081314 34.91209 34.892578 33.652344 C 33.703842 32.392597 32.264805 31.488326 31.060547 30.630859 C 29.721628 29.67751 28.092833 28.869356 27.060547 28.072266 C 26.544404 27.67372 26.20414 27.286619 26.078125 27.011719 C 25.95211 26.736819 25.927918 26.595066 26.136719 26.197266 A 1.0001 1.0001 0 0 0 25.835938 24.921875 L 24.820312 24.189453 A 1.0001 1.0001 0 0 0 24.259766 24 z M 24.060547 26.818359 C 24.078097 27.177556 24.117997 27.536442 24.259766 27.845703 C 24.605876 28.600741 25.192034 29.157545 25.837891 29.65625 C 27.129604 30.65366 28.77031 31.455115 29.900391 32.259766 C 31.165133 33.160299 32.485439 34.014387 33.439453 35.025391 C 34.393467 36.036394 35 37.133984 35 38.771484 C 35 39.991321 34.731069 40.788446 33.953125 42.033203 C 33.352294 42.994568 32.140377 44.534281 30.880859 46.175781 C 30.875559 46.027972 30.925806 45.877299 30.884766 45.736328 C 30.68195 45.039607 30.221545 44.538023 29.642578 44.015625 C 28.484645 42.970828 26.676166 41.820168 24.216797 40.142578 C 22.708065 39.112904 21.669862 38.346182 21.035156 37.527344 C 20.40045 36.708506 20.070867 35.812681 20.003906 34.189453 C 19.905456 31.807191 21.919922 29.486328 21.919922 29.486328 A 1.0001 1.0001 0 0 0 21.964844 29.433594 L 24.060547 26.818359 z M 18 51 A 1.0001 1.0001 0 0 0 17.105469 51.552734 L 15.105469 55.552734 A 1.0001 1.0001 0 0 0 16 57 L 23.322266 57 L 25.072266 61.371094 A 1.0001 1.0001 0 0 0 26 62 L 39 62 A 1.0001 1.0001 0 0 0 39.927734 61.371094 L 41.677734 57 L 49 57 A 1.0001 1.0001 0 0 0 49.894531 55.552734 L 47.894531 51.552734 A 1.0001 1.0001 0 0 0 47 51 L 18 51 z M 18.617188 53 L 46.382812 53 L 47.382812 55 L 41 55 A 1.0001 1.0001 0 0 0 40.072266 55.628906 L 38.322266 60 L 26.677734 60 L 24.927734 55.628906 A 1.0001 1.0001 0 0 0 24 55 L 17.617188 55 L 18.617188 53 z"/></svg>